<?xml version="1.0" encoding="UTF-8"?><svg id="Layer_2" xmlns="http://www.w3.org/2000/svg" xmlns:xlink="http://www.w3.org/1999/xlink" viewBox="0 0 87.94 16.21"><defs><style>.cls-1{fill:url(#linear-gradient-2);}.cls-2{fill:#fff;}.cls-3{fill:url(#linear-gradient);}</style><linearGradient id="linear-gradient" x1="16.29" y1="7.4" x2="-4.69" y2="7.23" gradientUnits="userSpaceOnUse"><stop offset=".25" stop-color="#19e6ce"/><stop offset=".3" stop-color="#18e2ca"/><stop offset=".35" stop-color="#15d7c0"/><stop offset=".39" stop-color="#11c4af"/><stop offset=".44" stop-color="#0caa97"/><stop offset=".48" stop-color="#058879"/><stop offset=".5" stop-color="#017366"/><stop offset=".65" stop-color="#19e6ce"/></linearGradient><linearGradient id="linear-gradient-2" x1=".77" y1="-1.36" x2="6.47" y2="16.25" gradientUnits="userSpaceOnUse"><stop offset="0" stop-color="#19e6ce"/><stop offset=".18" stop-color="#18e1ca"/><stop offset=".37" stop-color="#15d4be"/><stop offset=".56" stop-color="#10bfaa"/><stop offset=".76" stop-color="#0aa18f"/><stop offset=".96" stop-color="#027a6c"/><stop offset="1" stop-color="#017366"/></linearGradient></defs><g id="Layer_1-2"><path class="cls-2" d="M12.64,10.65c0-2.86,2.21-5.06,5.02-5.06s4.64,2.04,4.64,4.84c0,.32-.04.65-.12,1.05h-7.25c.32,1.34,1.38,2.15,2.83,2.15.99,0,1.88-.34,2.47-1.03l1.42,1.44c-.95,1.11-2.35,1.68-3.87,1.68-2.92,0-5.14-2.17-5.14-5.06ZM14.93,9.66h5.18c-.28-1.3-1.13-2.03-2.49-2.03s-2.37.77-2.69,2.03Z"/><path class="cls-2" d="M23.45,10.65c0-2.86,2.21-5.06,5.1-5.06,1.5,0,2.88.61,3.79,1.68l-1.46,1.48c-.57-.67-1.38-1.01-2.33-1.01-1.66,0-2.81,1.19-2.81,2.92s1.15,2.92,2.81,2.92c.95,0,1.76-.34,2.33-1.01l1.46,1.48c-.91,1.07-2.29,1.68-3.79,1.68-2.9,0-5.1-2.21-5.1-5.06Z"/><path class="cls-2" d="M35.67,7.82h-2.33v-2.03h2.33V1.74h2.23v4.05h2.33v2.03h-2.33v7.69h-2.23v-7.69Z"/><path class="cls-2" d="M40.93,10.63c0-2.81,2.23-5.04,5.08-5.04s5.1,2.21,5.1,5.04-2.23,5.08-5.1,5.08-5.08-2.25-5.08-5.08ZM48.83,10.63c0-1.7-1.17-2.9-2.81-2.9s-2.79,1.21-2.79,2.9,1.15,2.94,2.79,2.94,2.81-1.21,2.81-2.94Z"/><path class="cls-2" d="M52.95,5.79h2.23v1.01c.55-.77,1.4-1.21,2.53-1.21.97,0,1.74.34,2.41,1.11l-1.46,1.5c-.36-.36-.77-.53-1.34-.53-1.25,0-2.15.77-2.15,2.43v5.41h-2.23V5.79Z"/><path class="cls-2" d="M61.45.93h2.23v14.58h-2.23V.93Z"/><path class="cls-2" d="M65.96,2.67c0-.75.55-1.34,1.32-1.34s1.32.59,1.32,1.34-.55,1.34-1.32,1.34-1.32-.59-1.32-1.34ZM66.16,5.79h2.23v9.72h-2.23V5.79Z"/><path class="cls-2" d="M70.88,5.79h2.23v1.11c.67-.83,1.7-1.32,2.9-1.32,2.19,0,3.77,1.92,3.77,3.83v6.09h-2.23v-5.61c0-1.3-.91-2.23-2.21-2.23s-2.23.93-2.23,2.23v5.61h-2.23V5.79Z"/><path class="cls-2" d="M83.39,7.82h-2.33v-2.03h2.33V1.74h2.23v4.05h2.33v2.03h-2.33v7.69h-2.23v-7.69Z"/><path class="cls-3" d="M13.33,0l-3.9,14.39c-.07.16-.22.27-.4.27H1.96l-1-3.34h5.83L9.71,0h3.62Z"/><path class="cls-1" d="M8.27,16.21h-3.67l-.41-1.29c-.07-.15-.22-.26-.4-.26h.32l-1.04-3.34L0,1.55h3.87l2.93,9.75,1,3.36.18.59.29.96Z"/></g></svg>